<svg width="150.962" height="31.747" viewBox="0 0 39.942 8.4" xmlns="http://www.w3.org/2000/svg"><g stroke-width=".265"><path d="M3.36 0Q5.1 0 6.264 1.212 7.44 2.412 7.44 4.2t-1.176 3Q5.1 8.4 3.36 8.4H0V0zm0 6.552q.996 0 1.608-.636.624-.648.624-1.716t-.624-1.704q-.612-.648-1.608-.648H1.92v4.704zM10.45 6.55h3.36v1.848H8.53v-8.4h5.22v1.848h-3.3v1.392h3v1.824h-3zM16.9 8.4L14.164 0h2.1l1.86 6.18L19.984 0h2.1l-2.736 8.4zM22.81 0h1.92v8.4h-1.92z" style="font-feature-settings:normal;font-variant-caps:normal;font-variant-ligatures:normal;font-variant-numeric:normal"/></g><path d="M30.15 8.4q-1.811 0-3.011-1.2-1.189-1.211-1.189-3t1.189-2.988Q28.339 0 30.15 0q1.085 0 2.008.508.923.496 1.453 1.361l-1.592.923q-.265-.473-.761-.726-.496-.266-1.108-.266-1.073 0-1.72.658-.634.658-.634 1.742t.635 1.742q.646.658 1.72.658.61 0 1.107-.265.507-.266.761-.727l1.592.923q-.519.865-1.442 1.373-.923.496-2.019.496zM36.59 6.55h3.36v1.848h-5.28v-8.4h5.22v1.848h-3.3v1.392h3v1.824h-3z" style="font-feature-settings:normal;font-variant-caps:normal;font-variant-ligatures:normal;font-variant-numeric:normal"/></svg>